<?xml version="1.0" encoding="UTF-8"?>
<svg fill="none" viewBox="0 0 100 100" xmlns="http://www.w3.org/2000/svg">
<g clip-path="url(#clip0_20_3)">
<mask id="a" fill="white">
<path d="m85.496 38.889h9.3556c2.8388 0 5.1481 2.3092 5.1481 5.1481v11.926c0 2.8388-2.3093 5.1481-5.1481 5.1481h-9.3556c-1.5037 0-2.7463 0.8278-3.3204 2.2167-0.574 1.3889-0.2833 2.8518 0.7778 3.9148l6.6148 6.613c0.9722 0.974 1.5074 2.2666 1.5074 3.6407 0 1.3759-0.5352 2.6704-1.5074 3.6426l-8.4315 8.4315c-1.9444 1.9444-5.3351 1.9481-7.2833 0l-6.613-6.6148c-1.0629-1.0612-2.524-1.3556-3.9148-0.7778-1.3889 0.5759-2.2166 1.8148-2.2166 3.3185v9.3556c0 2.8388-2.3093 5.1481-5.1482 5.1481h-11.924c-2.8389 0-5.1481-2.3093-5.1481-5.1481v-9.3556c0-1.5037-0.8278-2.7426-2.2167-3.3185-1.3907-0.576-2.8518-0.2834-3.9148 0.7778l-6.613 6.6148c-1.9481 1.95-5.337 1.9463-7.2833 0l-8.4315-8.4315c-0.97219-0.9741-1.5074-2.2667-1.5074-3.6426 0-1.3741 0.53519-2.6685 1.5074-3.6407l6.6148-6.613c1.0612-1.063 1.3537-2.5259 0.7778-3.9148s-1.8148-2.2167-3.3185-2.2167h-9.3556c-2.8389 0-5.1482-2.3093-5.1482-5.15v-11.924c0-2.8389 2.3093-5.1481 5.1482-5.1481h9.3556c1.5037 0 2.7444-0.8278 3.3185-2.2167s0.2834-2.8518-0.7778-3.9148l-6.6148-6.613c-0.97219-0.974-1.5074-2.2666-1.5074-3.6407 0-1.3759 0.53519-2.6704 1.5074-3.6426l8.4315-8.4315c1.9445-1.9444 5.3352-1.9481 7.2833 0l6.613 6.613c1.063 1.0611 2.5296 1.3593 3.9148 0.7796 1.3889-0.5759 2.2167-1.8148 2.2167-3.3185v-9.3556c0-2.8389 2.3092-5.1482 5.1481-5.1482h11.926c2.8388 0 5.1481 2.3093 5.1481 5.1482v9.3556c0 1.5037 0.8278 2.7426 2.2167 3.3185 1.3852 0.5778 2.8518 0.2815 3.9148-0.7796l6.613-6.613c1.9481-1.9481 5.3388-1.9444 7.2833 0l8.4315 8.4315c0.9722 0.9741 1.5074 2.2667 1.5074 3.6426 0 1.3741-0.5352 2.6685-1.5074 3.6407l-6.6148 6.613c-1.0612 1.063-1.3538 2.5259-0.7778 3.9148 0.5759 1.3889 1.8148 2.2167 3.3185 2.2167zm-35.496 23.111c6.6274 0 12-5.3726 12-12s-5.3726-12-12-12-12 5.3726-12 12 5.3726 12 12 12z" clip-rule="evenodd" fill-rule="evenodd"/>
</mask>
<path d="m82.176 63.328 6.4692 2.6739-6.4692-2.6739zm0.7778 3.9148-4.9541 4.9454 5e-3 5e-3 4.9491-4.9504zm6.6148 6.613 4.9545-4.9451-0.0054-0.0054-4.9491 4.9505zm0 7.2833 4.9498 4.9497-4.9498-4.9497zm-8.4315 8.4315-4.9497-4.9498 4.9497 4.9498zm-7.2833 0-4.9504 4.949 7e-4 7e-4 4.9497-4.9497zm-6.613-6.6148 4.9505-4.9491-5e-3 -5e-3 -4.9455 4.9541zm-3.9148-0.7778 2.6813 6.4661 0.0043-0.0018-2.6856-6.4643zm-26.654 0 2.6813-6.4661-3e-3 -0.0013-2.6783 6.4674zm-3.9148 0.7778-4.9454-4.9541-5e-3 5e-3 4.9504 4.9491zm-6.613 6.6148-4.9504-4.9491-0.0017 0.0017 4.9521 4.9474zm-7.2833 0 4.9498-4.9498-4.9498 4.9498zm-8.4315-8.4315-4.9544 4.945 0.00471 0.0047 4.9497-4.9497zm0-7.2833-4.949-4.9505-7e-4 7e-4 4.9497 4.9498zm6.6148-6.613 4.9491 4.9504 5e-3 -5e-3 -4.9541-4.9454zm0.7778-3.9148-6.4661 2.6813 6.4661-2.6813zm-0.7778-30.57 4.9541-4.9454-5e-3 -5e-3 -4.9491 4.9504zm-6.6148-6.613-4.9544 4.9451 0.00541 0.0054 4.949-4.9505zm0-7.2833 4.9498 4.9498-4.9498-4.9498zm15.715-8.4315 4.9498-4.9497-4.9498 4.9497zm6.613 6.613-4.9497 4.9497 0.0043 0.0043 4.9454-4.954zm3.9148 0.7796-2.6813-6.4661-0.0104 0.0043-0.0104 0.0044 2.7021 6.4574zm26.656 0 2.6947-6.4605-0.0134-0.0056-2.6813 6.4661zm3.9148-0.7796 4.9454 4.9541 0.0043-0.0044-4.9497-4.9497zm6.613-6.613-4.9498-4.9497 4.9498 4.9497zm7.2833 0-4.9498 4.9498 4.9498-4.9498zm8.4315 8.4315 4.9544-4.945-0.0047-0.0047-4.9497 4.9497zm0 7.2833 4.949 4.9505 7e-4 -7e-4 -4.9497-4.9498zm-6.6148 6.613-4.9491-4.9504-5e-3 5e-3 4.9541 4.9454zm11.896-0.8685h-9.3556v14h9.3556v-14zm12.148 12.148c0-6.7048-5.443-12.148-12.148-12.148v14c-1.0272 0-1.8519-0.8248-1.8519-1.8519h14zm0 11.926v-11.926h-14v11.926h14zm-12.148 12.148c6.7051 0 12.148-5.4433 12.148-12.148h-14c0-1.0271 0.8247-1.8519 1.8519-1.8519v14zm-9.3556 0h9.3556v-14h-9.3556v14zm3.1488-2.1094c-0.2162 0.5231-0.6312 1.0919-1.2725 1.5198-0.6406 0.4274-1.3199 0.5896-1.8763 0.5896v-14c-4.3251 0-8.1287 2.5247-9.7895 6.5428l12.938 5.3478zm-0.7373-3.7045c0.3953 0.396 0.7599 0.9927 0.9096 1.746s0.0408 1.443-0.1723 1.9585l-12.938-5.3479c-1.6534 4-0.7668 8.4692 2.2928 11.534l9.9082-9.8908zm6.6098 6.6079-6.6149-6.613-9.8981 9.9009 6.6149 6.613 9.8981-9.9009zm3.5583 8.5912c0-3.2316-1.2732-6.3017-3.5529-8.5858l-9.9089 9.8901c-0.3353-0.336-0.5382-0.8209-0.5382-1.3043h14zm-3.5576 8.5923c2.2879-2.2879 3.5576-5.3641 3.5576-8.5923h-14c0-0.4764 0.1994-0.9637 0.5429-1.3072l9.8995 9.8995zm-8.4315 8.4315 8.4315-8.4315-9.8995-9.8995-8.4315 8.4315 9.8995 9.8995zm-17.183 0c4.685 4.6851 12.508 4.6749 17.183 0l-9.8995-9.8995c0.4781-0.4781 0.9906-0.5904 1.307-0.5905 0.3174-1e-4 0.8312 0.1126 1.3092 0.5905l-9.8995 9.8995zm-6.6137-6.6155 6.613 6.6148 9.9008-9.8981-6.6129-6.6148-9.9009 9.8981zm3.7212 0.7375c-0.5199 0.216-1.2159 0.3261-1.9744 0.1748-0.7569-0.151-1.3509-0.5171-1.7418-0.9073l9.8909-9.9081c-3.0553-3.0499-7.5248-3.9586-11.546-2.2881l5.3711 12.929zm2.0978-3.1458c0 0.5574-0.1629 1.2391-0.5918 1.8812-0.4289 0.642-0.996 1.0531-1.5103 1.2664l-5.3626-12.932c-4.0024 1.6596-6.5353 5.4497-6.5353 9.7846h14zm0 9.3556v-9.3556h-14v9.3556h14zm-12.148 12.148c6.7049 0 12.148-5.443 12.148-12.148h-14c0-1.0272 0.8247-1.8519 1.8518-1.8519v14zm-11.924 0h11.924v-14h-11.924v14zm-12.148-12.148c0 6.7051 5.4433 12.148 12.148 12.148v-14c1.0271 0 1.8519 0.8247 1.8519 1.8519h-14zm0-9.3556v9.3556h14v-9.3556h-14zm2.102 3.1476c-0.5143-0.2133-1.0814-0.6244-1.5102-1.2664-0.4289-0.6421-0.5918-1.3238-0.5918-1.8812h14c0-4.3349-2.533-8.125-6.5354-9.7846l-5.3626 12.932zm3.7119-0.7343c-0.3928 0.3922-0.9881 0.7579-1.744 0.9084-0.7567 0.1507-1.449 0.0408-1.9648-0.1728l5.3565-12.935c-4.0104-1.6608-8.4782-0.7639-11.538 2.2911l9.8908 9.9081zm-6.6079 6.6098 6.6129-6.6148-9.9008-9.8981-6.613 6.6148 9.9009 9.8981zm-17.184 7e-4c4.6754 4.6754 12.498 4.689 17.185-0.0023l-9.9042-9.8948c0.477-0.4774 0.9917-0.5916 1.3122-0.5915 0.3196 1e-4 0.8311 0.1138 1.3064 0.5891l-9.8995 9.8995zm-8.4315-8.4315 8.4315 8.4315 9.8995-9.8995-8.4315-8.4315-9.8995 9.8995zm-3.5577-8.5923c0 3.2321 1.2722 6.3026 3.553 8.5876l9.9089-9.89c0.3363 0.3369 0.5381 0.8221 0.5381 1.3024h-14zm3.5577-8.5905c-2.287 2.287-3.5577 5.3627-3.5577 8.5905h14c0 0.4796-0.2003 0.9665-0.5428 1.309l-9.8995-9.8995zm6.6155-6.6136-6.6148 6.6129 9.8981 9.9009 6.6148-6.613-9.8981-9.9008zm-0.7393 3.7169c-0.2155-0.5196-0.3245-1.213-0.1742-1.9681 0.1501-0.7544 0.515-1.3497 0.9085-1.7438l9.9081 9.8908c3.0546-3.0599 3.953-7.5307 2.2898-11.542l-12.932 5.3626zm3.1476 2.102c-0.5574 0-1.2391-0.1628-1.8812-0.5918-0.642-0.4289-1.0531-0.9959-1.2664-1.5102l12.932-5.3626c-1.6596-4.0024-5.4497-6.5354-9.7846-6.5354v14zm-9.3556 0h9.3556v-14h-9.3556v14zm-12.148-12.15c0 6.7051 5.4416 12.15 12.148 12.15v-14c1.0287 0 1.8518 0.8264 1.8518 1.85h-14zm0-11.924v11.924h14v-11.924h-14zm12.148-12.148c-6.7049 0-12.148 5.4433-12.148 12.148h14c0 1.0271-0.82475 1.8519-1.8518 1.8519v-14zm9.3556 0h-9.3556v14h9.3556v-14zm-3.1506 2.1094c0.2151-0.5204 0.6289-1.0894 1.2712-1.5184 0.6418-0.4285 1.3226-0.591 1.8794-0.591v14c4.3293 0 8.1285-2.5286 9.7877-6.5428l-12.938-5.3478zm0.7373 3.7045c-0.3954-0.396-0.76-0.9927-0.9097-1.746-0.1496-0.7533-0.0407-1.443 0.1724-1.9585l12.938 5.3478c1.6533-4 0.7668-8.4691-2.2929-11.534l-9.9081 9.8908zm-6.6098-6.6079 6.6148 6.6129 9.8981-9.9008-6.6148-6.613-9.8981 9.9009zm-3.5584-8.5912c0 3.2316 1.2732 6.3017 3.553 8.5858l9.9089-9.8901c0.3353 0.336 0.5381 0.8209 0.5381 1.3043h-14zm3.5577-8.5923c-2.2879 2.2879-3.5577 5.3641-3.5577 8.5923h14c0 0.4764-0.1993 0.9637-0.5428 1.3072l-9.8995-9.8995zm8.4315-8.4315-8.4315 8.4315 9.8995 9.8995 8.4315-8.4315-9.8995-9.8995zm17.183 0c-4.6851-4.6851-12.508-4.6749-17.183 0l9.8995 9.8995c-0.4781 0.4781-0.9906 0.5904-1.3071 0.5905-0.3174 1e-4 -0.8312-0.1126-1.3091-0.5905l9.8995-9.8995zm6.613 6.6129-6.613-6.6129-9.8995 9.8995 6.613 6.6129 9.8995-9.8995zm-3.7371-0.728c0.5384-0.2253 1.2428-0.3322 1.9985-0.1808 0.7523 0.1506 1.3433 0.5143 1.7342 0.9045l-9.8908 9.9081c3.0433 3.0381 7.5222 3.9737 11.562 2.2831l-5.4042-12.915zm-2.0812 3.1389c0-0.5574 0.1629-1.2391 0.5918-1.8812 0.4289-0.642 0.9959-1.0531 1.5102-1.2664l5.3626 12.932c4.0024-1.6596 6.5354-5.4497 6.5354-9.7846h-14zm0-9.3556v9.3556h14v-9.3556h-14zm12.148-12.148c-6.7048 0-12.148 5.4433-12.148 12.148h14c0 1.0271-0.8248 1.8518-1.8519 1.8518v-14zm11.926 0h-11.926v14h11.926v-14zm12.148 12.148c0-6.7049-5.4433-12.148-12.148-12.148v14c-1.0271 0-1.8519-0.82474-1.8519-1.8518h14zm0 9.3556v-9.3556h-14v9.3556h14zm-2.102-3.1476c0.5143 0.2133 1.0813 0.6244 1.5102 1.2664 0.429 0.6421 0.5918 1.3238 0.5918 1.8812h-14c0 4.3349 2.533 8.125 6.5354 9.7846l5.3626-12.932zm-3.7119 0.7324c0.3928-0.3922 0.9851-0.7555 1.7365-0.9057 0.7538-0.1507 1.4546-0.0439 1.9888 0.1789l-5.3895 12.921c4.0294 1.6808 8.5066 0.7571 11.555-2.286l-9.8908-9.9082zm6.6086-6.6086-6.613 6.6129 9.8995 9.8995 6.613-6.6129-9.8995-9.8995zm17.183 0c-4.6748-4.6749-12.498-4.685-17.183 0l9.8995 9.8995c-0.4779 0.4779-0.9917 0.5906-1.3091 0.5905-0.3165-1e-4 -0.829-0.1124-1.3071-0.5905l9.8995-9.8995zm8.4315 8.4315-8.4315-8.4315-9.8995 9.8995 8.4315 8.4315 9.8995-9.8995zm3.5577 8.5923c0-3.2321-1.2723-6.3026-3.553-8.5876l-9.9089 9.89c-0.3363-0.3369-0.5381-0.8222-0.5381-1.3024h14zm-3.5577 8.5905c2.287-2.287 3.5577-5.3627 3.5577-8.5905h-14c0-0.4796 0.2003-0.9665 0.5428-1.309l9.8995 9.8995zm-6.6155 6.6136 6.6148-6.6129-9.8981-9.9009-6.6148 6.613 9.8981 9.9008zm0.7393-3.7169c0.2155 0.5197 0.3245 1.213 0.1742 1.9682-0.1501 0.7543-0.5151 1.3496-0.9085 1.7437l-9.9081-9.8908c-3.0545 3.0598-3.953 7.5307-2.2898 11.542l12.932-5.3626zm-3.1476-2.102c0.5574 0 1.2391 0.1629 1.8812 0.5918 0.642 0.4288 1.0531 0.9959 1.2664 1.5102l-12.932 5.3626c1.6596 4.0024 5.4497 6.5354 9.7846 6.5354v-14zm-30.496 18.111c0 2.7614-2.2386 5-5 5v14c10.493 0 19-8.5066 19-19h-14zm-5-5c2.7614 0 5 2.2386 5 5h14c0-10.493-8.5066-19-19-19v14zm-5 5c0-2.7614 2.2386-5 5-5v-14c-10.493 0-19 8.5066-19 19h14zm5 5c-2.7614 0-5-2.2386-5-5h-14c0 10.493 8.5066 19 19 19v-14z" mask="url(#a)"/>
</g>
</svg>
