<svg width="100" height="100" viewBox="0 0 100 100" fill="none" xmlns="http://www.w3.org/2000/svg">
<g clip-path="url(#clip0_20_3)">
<mask id="path-1-inside-1_20_3" fill="white">
<path fill-rule="evenodd" clip-rule="evenodd" d="M85.4963 38.8889H94.8519C97.6907 38.8889 100 41.1981 100 44.037V55.963C100 58.8018 97.6907 61.1111 94.8519 61.1111H85.4963C83.9926 61.1111 82.75 61.9389 82.1759 63.3278C81.6019 64.7167 81.8926 66.1796 82.9537 67.2426L89.5685 73.8556C90.5407 74.8296 91.0759 76.1222 91.0759 77.4963C91.0759 78.8722 90.5407 80.1667 89.5685 81.1389L81.137 89.5704C79.1926 91.5148 75.8019 91.5185 73.8537 89.5704L67.2407 82.9556C66.1778 81.8944 64.7167 81.6 63.3259 82.1778C61.937 82.7537 61.1093 83.9926 61.1093 85.4963V94.8519C61.1093 97.6907 58.8 100 55.9611 100H44.037C41.1981 100 38.8889 97.6907 38.8889 94.8519V85.4963C38.8889 83.9926 38.0611 82.7537 36.6722 82.1778C35.2815 81.6018 33.8204 81.8944 32.7574 82.9556L26.1444 89.5704C24.1963 91.5204 20.8074 91.5167 18.8611 89.5704L10.4296 81.1389C9.45741 80.1648 8.92222 78.8722 8.92222 77.4963C8.92222 76.1222 9.45741 74.8278 10.4296 73.8556L17.0444 67.2426C18.1056 66.1796 18.3981 64.7167 17.8222 63.3278C17.2463 61.9389 16.0074 61.1111 14.5037 61.1111H5.14815C2.30926 61.1111 0 58.8018 0 55.9611V44.037C0 41.1981 2.30926 38.8889 5.14815 38.8889H14.5037C16.0074 38.8889 17.2481 38.0611 17.8222 36.6722C18.3963 35.2833 18.1056 33.8204 17.0444 32.7574L10.4296 26.1444C9.45741 25.1704 8.92222 23.8778 8.92222 22.5037C8.92222 21.1278 9.45741 19.8333 10.4296 18.8611L18.8611 10.4296C20.8056 8.48518 24.1963 8.48148 26.1444 10.4296L32.7574 17.0426C33.8204 18.1037 35.287 18.4019 36.6722 17.8222C38.0611 17.2463 38.8889 16.0074 38.8889 14.5037V5.14815C38.8889 2.30926 41.1981 0 44.037 0H55.963C58.8018 0 61.1111 2.30926 61.1111 5.14815V14.5037C61.1111 16.0074 61.9389 17.2463 63.3278 17.8222C64.713 18.4 66.1796 18.1037 67.2426 17.0426L73.8556 10.4296C75.8037 8.48148 79.1944 8.48518 81.1389 10.4296L89.5704 18.8611C90.5426 19.8352 91.0778 21.1278 91.0778 22.5037C91.0778 23.8778 90.5426 25.1722 89.5704 26.1444L82.9556 32.7574C81.8944 33.8204 81.6018 35.2833 82.1778 36.6722C82.7537 38.0611 83.9926 38.8889 85.4963 38.8889ZM50 63C57.1797 63 63 57.1797 63 50C63 42.8203 57.1797 37 50 37C42.8203 37 37 42.8203 37 50C37 57.1797 42.8203 63 50 63Z"/>
</mask>
<path d="M82.1759 63.3278L87.7209 65.6197L87.7209 65.6197L82.1759 63.3278ZM82.9537 67.2426L78.7074 71.4815L78.7117 71.4858L82.9537 67.2426ZM89.5685 73.8556L93.8152 69.617L93.8106 69.6123L89.5685 73.8556ZM89.5685 81.1389L93.8112 85.3815L93.8112 85.3815L89.5685 81.1389ZM81.137 89.5704L76.8944 85.3277L76.8944 85.3277L81.137 89.5704ZM73.8537 89.5704L69.6105 93.8124L69.6111 93.813L73.8537 89.5704ZM67.2407 82.9556L71.484 78.7135L71.4797 78.7092L67.2407 82.9556ZM63.3259 82.1778L65.6242 87.7202L65.6278 87.7186L63.3259 82.1778ZM36.6722 82.1778L38.9705 76.6354L38.9679 76.6343L36.6722 82.1778ZM32.7574 82.9556L28.5185 78.7092L28.5142 78.7135L32.7574 82.9556ZM26.1444 89.5704L21.9012 85.3283L21.8998 85.3297L26.1444 89.5704ZM18.8611 89.5704L23.1038 85.3277L23.1038 85.3277L18.8611 89.5704ZM10.4296 81.1389L6.18295 85.3775L6.18699 85.3815L10.4296 81.1389ZM10.4296 73.8556L6.18758 69.6123L6.18699 69.6129L10.4296 73.8556ZM17.0444 67.2426L21.2865 71.4858L21.2908 71.4815L17.0444 67.2426ZM17.8222 63.3278L12.2798 65.626L12.2798 65.626L17.8222 63.3278ZM17.0444 32.7574L21.2908 28.5185L21.2865 28.5142L17.0444 32.7574ZM10.4296 26.1444L6.18295 30.383L6.18758 30.3877L10.4296 26.1444ZM10.4296 18.8611L14.6723 23.1038L14.6723 23.1038L10.4296 18.8611ZM26.1444 10.4296L30.3871 6.18699L30.3871 6.18699L26.1444 10.4296ZM32.7574 17.0426L28.5148 21.2852L28.5185 21.2889L32.7574 17.0426ZM36.6722 17.8222L34.374 12.2798L34.365 12.2835L34.3561 12.2873L36.6722 17.8222ZM63.3278 17.8222L65.6376 12.2846L65.626 12.2798L63.3278 17.8222ZM67.2426 17.0426L71.4815 21.2889L71.4852 21.2852L67.2426 17.0426ZM73.8556 10.4296L69.6129 6.18699L69.6129 6.18699L73.8556 10.4296ZM81.1389 10.4296L76.8962 14.6723L76.8962 14.6723L81.1389 10.4296ZM89.5704 18.8611L93.817 14.6225L93.813 14.6185L89.5704 18.8611ZM89.5704 26.1444L93.8124 30.3877L93.813 30.3871L89.5704 26.1444ZM82.9556 32.7574L78.7135 28.5142L78.7092 28.5185L82.9556 32.7574ZM94.8519 32.8889H85.4963V44.8889H94.8519V32.8889ZM106 44.037C106 37.8844 101.004 32.8889 94.8519 32.8889V44.8889C94.377 44.8889 94 44.5119 94 44.037H106ZM106 55.963V44.037H94V55.963H106ZM94.8519 67.1111C101.004 67.1111 106 62.1156 106 55.963H94C94 55.4881 94.377 55.1111 94.8519 55.1111V67.1111ZM85.4963 67.1111H94.8519V55.1111H85.4963V67.1111ZM87.7209 65.6197C87.5766 65.9688 87.2858 66.3772 86.8176 66.6897C86.35 67.0016 85.8658 67.1111 85.4963 67.1111V55.1111C81.5743 55.1111 78.1365 57.3934 76.6309 61.0358L87.7209 65.6197ZM87.2 63.0037C87.4631 63.2672 87.7274 63.6884 87.8366 64.2381C87.9458 64.7878 87.8626 65.2771 87.7209 65.6197L76.6309 61.0358C75.1318 64.6628 75.9332 68.7025 78.7074 71.4815L87.2 63.0037ZM93.8106 69.6123L87.1957 62.9994L78.7117 71.4858L85.3265 78.0988L93.8106 69.6123ZM97.0759 77.4963C97.0759 74.5301 95.9082 71.7139 93.8152 69.617L85.3218 78.0942C85.2564 78.0286 85.1908 77.9361 85.1432 77.8212C85.0956 77.7063 85.0759 77.5927 85.0759 77.4963H97.0759ZM93.8112 85.3815C95.9111 83.2816 97.0759 80.4599 97.0759 77.4963H85.0759C85.0759 77.4022 85.0951 77.29 85.1426 77.1752C85.1901 77.0602 85.2567 76.9654 85.3259 76.8962L93.8112 85.3815ZM85.3797 93.813L93.8112 85.3815L85.3259 76.8962L76.8944 85.3277L85.3797 93.813ZM69.6111 93.813C73.9051 98.1071 81.0949 98.0978 85.3797 93.813L76.8944 85.3277C77.1653 85.0568 77.414 85.0301 77.4947 85.0301C77.5761 85.0301 77.8259 85.0572 78.0963 85.3277L69.6111 93.813ZM62.9975 87.1976L69.6105 93.8124L78.0969 85.3283L71.484 78.7135L62.9975 87.1976ZM65.6278 87.7186C65.2816 87.8625 64.7869 87.9467 64.2327 87.8362C63.6799 87.7259 63.2609 87.4606 63.0018 87.2019L71.4797 78.7092C68.709 75.9434 64.6693 75.1225 61.024 76.6369L65.6278 87.7186ZM67.1093 85.4963C67.1093 85.8667 66.9992 86.353 66.6859 86.822C66.3727 87.2909 65.9658 87.5785 65.6242 87.7202L61.0277 76.6354C57.3986 78.1402 55.1093 81.5659 55.1093 85.4963H67.1093ZM67.1093 94.8519V85.4963H55.1093V94.8519H67.1093ZM55.9611 106C62.1137 106 67.1093 101.004 67.1093 94.8519H55.1093C55.1093 94.377 55.4863 94 55.9611 94V106ZM44.037 106H55.9611V94H44.037V106ZM32.8889 94.8519C32.8889 101.004 37.8844 106 44.037 106V94C44.5119 94 44.8889 94.377 44.8889 94.8519H32.8889ZM32.8889 85.4963V94.8519H44.8889V85.4963H32.8889ZM34.374 87.7202C34.0323 87.5785 33.6254 87.2909 33.3122 86.822C32.9989 86.353 32.8889 85.8667 32.8889 85.4963H44.8889C44.8889 81.5659 42.5995 78.1402 38.9705 76.6354L34.374 87.7202ZM36.9963 87.2019C36.7355 87.4622 36.3155 87.7274 35.7635 87.8373C35.211 87.9473 34.7194 87.8632 34.3766 87.7212L38.9679 76.6343C35.3318 75.1285 31.2935 75.939 28.5185 78.7092L36.9963 87.2019ZM30.3877 93.8124L37.0006 87.1976L28.5142 78.7135L21.9012 85.3283L30.3877 93.8124ZM14.6185 93.813C18.904 98.0986 26.0935 98.1107 30.3891 93.811L21.8998 85.3297C22.1694 85.0598 22.42 85.0314 22.5042 85.0315C22.5875 85.0315 22.8354 85.0593 23.1038 85.3277L14.6185 93.813ZM6.18699 85.3815L14.6185 93.813L23.1038 85.3277L14.6723 76.8962L6.18699 85.3815ZM2.92222 77.4963C2.92222 80.4632 4.08917 83.2797 6.18295 85.3775L14.6763 76.9003C14.7419 76.966 14.8076 77.0587 14.8553 77.1737C14.9029 77.2889 14.9222 77.4018 14.9222 77.4963H2.92222ZM6.18699 69.6129C4.08783 71.7121 2.92222 74.5334 2.92222 77.4963H14.9222C14.9222 77.5922 14.9027 77.7051 14.8553 77.8198C14.8078 77.9345 14.7414 78.0291 14.6723 78.0982L6.18699 69.6129ZM12.8024 62.9994L6.18758 69.6123L14.6717 78.0988L21.2865 71.4858L12.8024 62.9994ZM12.2798 65.626C12.1363 65.2798 12.0529 64.7874 12.1626 64.2362C12.2722 63.6856 12.5367 63.2655 12.7981 63.0037L21.2908 71.4815C24.0606 68.7069 24.8724 64.6658 23.3646 61.0295L12.2798 65.626ZM14.5037 67.1111C14.1333 67.1111 13.647 67.0011 13.178 66.6878C12.7091 66.3746 12.4215 65.9677 12.2798 65.626L23.3646 61.0295C21.8598 57.4005 18.4341 55.1111 14.5037 55.1111V67.1111ZM5.14815 67.1111H14.5037V55.1111H5.14815V67.1111ZM-6 55.9611C-6 62.1142 -1.00586 67.1111 5.14815 67.1111V55.1111C5.62437 55.1111 6 55.4895 6 55.9611H-6ZM-6 44.037V55.9611H6V44.037H-6ZM5.14815 32.8889C-1.00445 32.8889 -6 37.8844 -6 44.037H6C6 44.5119 5.62297 44.8889 5.14815 44.8889V32.8889ZM14.5037 32.8889H5.14815V44.8889H14.5037V32.8889ZM12.2772 34.3803C12.4206 34.0334 12.7105 33.6249 13.1796 33.3116C13.6483 32.9986 14.1339 32.8889 14.5037 32.8889V44.8889C18.4293 44.8889 21.8631 42.6033 23.3672 38.9642L12.2772 34.3803ZM12.7981 36.9963C12.535 36.7328 12.2708 36.3116 12.1616 35.7619C12.0524 35.2123 12.1356 34.7229 12.2772 34.3803L23.3672 38.9642C24.8664 35.3372 24.0649 31.2974 21.2908 28.5185L12.7981 36.9963ZM6.18758 30.3877L12.8024 37.0006L21.2865 28.5142L14.6717 21.9012L6.18758 30.3877ZM2.92222 22.5037C2.92222 25.4699 4.08998 28.2861 6.18296 30.383L14.6763 21.9058C14.7418 21.9714 14.8074 22.0639 14.855 22.1788C14.9026 22.2937 14.9222 22.4073 14.9222 22.5037H2.92222ZM6.18699 14.6185C4.08701 16.7184 2.92222 19.5401 2.92222 22.5037H14.9222C14.9222 22.5978 14.9031 22.71 14.8556 22.8248C14.808 22.9397 14.7414 23.0346 14.6723 23.1038L6.18699 14.6185ZM14.6185 6.18699L6.18699 14.6185L14.6723 23.1038L23.1038 14.6723L14.6185 6.18699ZM30.3871 6.18699C26.093 1.89292 18.9033 1.90217 14.6185 6.18699L23.1038 14.6723C22.8328 14.9432 22.5841 14.9699 22.5035 14.9699C22.422 14.9699 22.1723 14.9428 21.9018 14.6723L30.3871 6.18699ZM37 12.8L30.3871 6.18699L21.9018 14.6723L28.5148 21.2852L37 12.8ZM34.3561 12.2873C34.7186 12.1356 35.2206 12.054 35.7722 12.1645C36.321 12.2744 36.7372 12.5375 36.9963 12.7963L28.5185 21.2889C31.2789 24.0445 35.3275 24.8891 38.9883 23.3572L34.3561 12.2873ZM32.8889 14.5037C32.8889 14.1333 32.9989 13.647 33.3122 13.178C33.6254 12.7091 34.0323 12.4215 34.374 12.2798L38.9705 23.3646C42.5995 21.8598 44.8889 18.4341 44.8889 14.5037H32.8889ZM32.8889 5.14815V14.5037H44.8889V5.14815H32.8889ZM44.037 -6C37.8844 -6 32.8889 -1.00445 32.8889 5.14815H44.8889C44.8889 5.62297 44.5119 6 44.037 6V-6ZM55.963 -6H44.037V6H55.963V-6ZM67.1111 5.14815C67.1111 -1.00445 62.1156 -6 55.963 -6V6C55.4881 6 55.1111 5.62297 55.1111 5.14815H67.1111ZM67.1111 14.5037V5.14815H55.1111V14.5037H67.1111ZM65.626 12.2798C65.9677 12.4215 66.3746 12.7091 66.6878 13.178C67.0011 13.647 67.1111 14.1333 67.1111 14.5037H55.1111C55.1111 18.4341 57.4005 21.8598 61.0295 23.3646L65.626 12.2798ZM63.0037 12.7963C63.2645 12.5359 63.6818 12.273 64.2297 12.1634C64.7798 12.0535 65.2786 12.1349 65.6376 12.2846L61.018 23.3598C64.6696 24.883 68.7167 24.0489 71.4815 21.2889L63.0037 12.7963ZM69.6129 6.18699L63 12.8L71.4852 21.2852L78.0982 14.6723L69.6129 6.18699ZM85.3815 6.18699C81.0967 1.90217 73.907 1.89292 69.6129 6.18699L78.0982 14.6723C77.8277 14.9428 77.578 14.9699 77.4965 14.9699C77.4159 14.9699 77.1672 14.9432 76.8962 14.6723L85.3815 6.18699ZM93.813 14.6185L85.3815 6.18699L76.8962 14.6723L85.3277 23.1038L93.813 14.6185ZM97.0778 22.5037C97.0778 19.5368 95.9108 16.7203 93.817 14.6225L85.3237 23.0997C85.2581 23.034 85.1924 22.9413 85.1447 22.8263C85.0971 22.7111 85.0778 22.5982 85.0778 22.5037H97.0778ZM93.813 30.3871C95.9122 28.2879 97.0778 25.4666 97.0778 22.5037H85.0778C85.0778 22.4077 85.0973 22.2949 85.1447 22.1802C85.1922 22.0655 85.2586 21.9709 85.3277 21.9018L93.813 30.3871ZM87.1976 37.0006L93.8124 30.3877L85.3283 21.9012L78.7135 28.5142L87.1976 37.0006ZM87.7202 34.374C87.8637 34.7202 87.9471 35.2126 87.8373 35.7638C87.7278 36.3144 87.4633 36.7345 87.2019 36.9963L78.7092 28.5185C75.9395 31.293 75.1275 35.3342 76.6354 38.9705L87.7202 34.374ZM85.4963 32.8889C85.8667 32.8889 86.353 32.9989 86.822 33.3122C87.2909 33.6254 87.5785 34.0323 87.7202 34.374L76.6354 38.9705C78.1402 42.5995 81.5659 44.8889 85.4963 44.8889V32.8889ZM57 50C57 53.866 53.866 57 50 57V69C60.4934 69 69 60.4934 69 50H57ZM50 43C53.866 43 57 46.134 57 50H69C69 39.5066 60.4934 31 50 31V43ZM43 50C43 46.134 46.134 43 50 43V31C39.5066 31 31 39.5066 31 50H43ZM50 57C46.134 57 43 53.866 43 50H31C31 60.4934 39.5066 69 50 69V57Z" mask="url(#path-1-inside-1_20_3)"/>
</g>
</svg>
